<svg width="608" height="201" viewBox="0 0 608 201" fill="none" xmlns="http://www.w3.org/2000/svg">
<path d="M124.453 198.141H98.4375V49.5H0V25.5938H145.969V49.5H124.453V198.141Z" fill="black"/>
<path d="M240.891 62.2969H220.922L218.109 0H243.984L240.891 62.2969ZM189 62.2969H169.172L166.219 0H192.094L189 62.2969Z" fill="black"/>
<path d="M275.062 107.719C275.062 96.375 276.422 85.0312 279.141 73.6875C281.953 62.3438 285.188 54.2812 288.844 49.5H263.531V25.5938H356.906C382.781 25.5938 401.344 31.125 412.594 42.1875C423.844 53.1562 429.469 71.4375 429.469 97.0312V109.406C429.469 139.406 422.719 162.188 409.219 177.75C395.812 193.219 376.172 200.953 350.297 200.953C324.609 200.953 305.625 193.734 293.344 179.297C281.156 164.766 275.062 142.547 275.062 112.641V107.719ZM311.906 49.5C305.625 60.6562 302.484 79.6875 302.484 106.594V114.047C302.484 134.672 306.609 150.328 314.859 161.016C323.203 171.703 335.203 177.047 350.859 177.047C368.766 177.047 381.703 171.75 389.672 161.156C397.734 150.562 401.766 133.219 401.766 109.125V96.75C401.766 79.3125 398.438 67.0781 391.781 60.0469C385.125 53.0156 373.406 49.5 356.625 49.5H311.906Z" fill="black"/>
<path d="M463.5 49.5V25.5938H516.516C542.391 25.5938 560.906 31.125 572.062 42.1875C583.219 53.25 588.797 71.5312 588.797 97.0312V174.234H607.5V198.141H456.891V174.234H562.922V96.75C562.922 79.5 559.406 67.3125 552.375 60.1875C545.438 53.0625 533.391 49.5 516.234 49.5H463.5Z" fill="black"/>
</svg>
