<svg viewBox="0 0 24 24" fill="none" xmlns="http://www.w3.org/2000/svg">
<path d="M1.55182 20.8714L11.7856 3.81503C11.8827 3.65319 12.1173 3.65319 12.2144 3.81503L22.4482 20.8714C22.5482 21.038 22.4281 21.25 22.2338 21.25H1.76619C1.57187 21.25 1.45184 21.038 1.55182 20.8714Z" fill="#EBBE54" stroke="#0A0B0D" stroke-width="1.5"/>
<path d="M12 9C11.4596 9 11.0327 9.45846 11.0712 9.99746L11.4644 15.5013C11.4844 15.7823 11.7183 16 12 16C12.2817 16 12.5156 15.7823 12.5356 15.5013L12.9288 9.99746C12.9673 9.45846 12.5404 9 12 9Z" fill="#0A0B0D"/>
<path d="M12 17C11.4477 17 11 17.4477 11 18C11 18.5523 11.4477 19 12 19C12.5523 19 13 18.5523 13 18C13 17.4477 12.5523 17 12 17Z" fill="#0A0B0D"/>
</svg>
