<svg xmlns="http://www.w3.org/2000/svg" viewBox="0 0 24 24" width="24" height="24" id="info">
    <path d="M12 0.75C18.2132 0.75 23.25 5.7868 23.25 12C23.25 18.2132 18.2132 23.25 12 23.25C5.7868 23.25 0.75 18.2132 0.75 12C0.75 5.7868 5.7868 0.75 12 0.75Z" stroke="#0A0B0D" stroke-width="1.5" fill="#2a7dad"/>
    <path fill-rule="evenodd" clip-rule="evenodd" fill="#ffffff"
        d="M12 5a1 1 0 100 2 1 1 0 000-2zm1 12.5V9.492a.34.34 0 00-.46-.32 13.967 13.967 0 01-3.172.782l-.059.007a.353.353 0 00-.309.35v.158c0 .293.238.531.531.531H10a1 1 0 011 1v5.5l-.043.029A2.805 2.805 0 019.4 18a.4.4 0 00-.401.4v.1a.5.5 0 00.5.5h5a.5.5 0 00.5-.5v-.1a.4.4 0 00-.4-.4 2.805 2.805 0 01-1.557-.471L13 17.5z" />
</svg>
