<svg viewBox="0 0 24 24" fill="none" xmlns="http://www.w3.org/2000/svg">
<path d="M7.68114 22.1768L1.82322 16.3189C1.77634 16.272 1.75 16.2084 1.75 16.1421V7.85791C1.75 7.79161 1.77634 7.72802 1.82322 7.68114L7.68114 1.82322C7.72802 1.77634 7.79161 1.75 7.85791 1.75H16.1422C16.2085 1.75 16.2721 1.77634 16.319 1.82322L22.1768 7.68104C22.2237 7.72792 22.25 7.79151 22.25 7.85781V16.1422C22.25 16.2085 22.2237 16.2721 22.1768 16.319L16.319 22.1768C16.2721 22.2237 16.2085 22.25 16.1422 22.25H7.85791C7.79161 22.25 7.72802 22.2237 7.68114 22.1768Z" fill="#F16050" stroke="#0A0B0D" stroke-width="1.5"/>
<path d="M12 6C11.4569 6 11.0253 6.45622 11.0555 6.99846L11.4723 14.5008C11.4878 14.7809 11.7195 15 12 15C12.2805 15 12.5122 14.7809 12.5277 14.5008L12.9445 6.99846C12.9747 6.45622 12.5431 6 12 6Z" fill="#ffffff"/>
<path d="M12 16C11.4477 16 11 16.4477 11 17C11 17.5523 11.4477 18 12 18C12.5523 18 13 17.5523 13 17C13 16.4477 12.5523 16 12 16Z" fill="#ffffff"/>
</svg>
