<?xml version="1.0" encoding="UTF-8" standalone="no"?>
<svg
   xmlns:dc="http://purl.org/dc/elements/1.1/"
   xmlns:cc="http://creativecommons.org/ns#"
   xmlns:rdf="http://www.w3.org/1999/02/22-rdf-syntax-ns#"
   xmlns:svg="http://www.w3.org/2000/svg"
   xmlns="http://www.w3.org/2000/svg"
   xmlns:sodipodi="http://sodipodi.sourceforge.net/DTD/sodipodi-0.dtd"
   xmlns:inkscape="http://www.inkscape.org/namespaces/inkscape"
   width="488.13559"
   height="488.13559"
   viewBox="0 0 488.13559 488.13559"
   version="1.1"
   id="svg6"
   sodipodi:docname="personal_logo_new.svg"
   style="fill:none"
   inkscape:version="0.92.3 (unknown)">
  <metadata
     id="metadata12">
    <rdf:RDF>
      <cc:Work
         rdf:about="">
        <dc:format>image/svg+xml</dc:format>
        <dc:type
           rdf:resource="http://purl.org/dc/dcmitype/StillImage" />
        <dc:title></dc:title>
      </cc:Work>
    </rdf:RDF>
  </metadata>
  <defs
     id="defs10">
    <clipPath
       clipPathUnits="userSpaceOnUse"
       id="clipPath4626">
      <rect
         y="182.19069"
         x="-725.21185"
         height="57.203388"
         width="57.203388"
         id="rect4628"
         style="opacity:1;fill:#008000;fill-opacity:1;stroke:none;stroke-width:1;stroke-linecap:round;stroke-linejoin:round;stroke-miterlimit:4;stroke-dasharray:none;stroke-opacity:1" />
    </clipPath>
    <clipPath
       clipPathUnits="userSpaceOnUse"
       id="clipPath4636">
      <rect
         y="182.19069"
         x="-725.21185"
         height="57.203388"
         width="57.203388"
         id="rect4638"
         style="opacity:1;fill:#f2f2f2;fill-opacity:1;stroke:none;stroke-width:1;stroke-linecap:round;stroke-linejoin:round;stroke-miterlimit:4;stroke-dasharray:none;stroke-opacity:1" />
    </clipPath>
    <filter
       inkscape:collect="always"
       style="color-interpolation-filters:sRGB"
       id="filter4767"
       x="-0.045291856"
       width="1.0905837"
       y="-0.029871672"
       height="1.0597433">
      <feGaussianBlur
         inkscape:collect="always"
         stdDeviation="4.1593778"
         id="feGaussianBlur4769" />
    </filter>
  </defs>
  <sodipodi:namedview
     pagecolor="#ffffff"
     bordercolor="#666666"
     borderopacity="1"
     objecttolerance="10"
     gridtolerance="10"
     guidetolerance="10"
     inkscape:pageopacity="0"
     inkscape:pageshadow="2"
     inkscape:window-width="1600"
     inkscape:window-height="872"
     id="namedview8"
     showgrid="false"
     inkscape:measure-start="0,0"
     inkscape:measure-end="0,0"
     inkscape:zoom="0.55625733"
     inkscape:cx="174.24154"
     inkscape:cy="320.96239"
     inkscape:window-x="1366"
     inkscape:window-y="0"
     inkscape:window-maximized="1"
     inkscape:current-layer="g855"
     fit-margin-top="0"
     fit-margin-left="0"
     fit-margin-right="0"
     fit-margin-bottom="0"
     inkscape:snap-intersection-paths="true"
     inkscape:object-paths="true"
     inkscape:snap-smooth-nodes="true" />
  <rect
     y="-77.786545"
     x="-1054.7623"
     height="0"
     width="92.088722"
     id="rect4591"
     style="opacity:1;fill:#000000;fill-opacity:1;stroke:none;stroke-width:0;stroke-linecap:round;stroke-linejoin:round;stroke-miterlimit:4;stroke-dasharray:none;stroke-opacity:1" />
  <g
     id="g855"
     inkscape:export-xdpi="96"
     inkscape:export-ydpi="96">
    <rect
       style="fill:#333333;fill-opacity:1;stroke-width:0.81355929"
       y="2.705078e-06"
       x="1.5625001e-06"
       id="rect4712"
       height="488.13559"
       width="488.13559"
       ry="75.081253"
       inkscape:export-xdpi="96"
       inkscape:export-ydpi="96" />
    <path
       style="clip-rule:evenodd;fill:#1a1a1a;fill-opacity:0.46327682;fill-rule:evenodd;stroke-width:0.79615551;filter:url(#filter4767)"
       d="m 137.92435,80.97777 c -0.4707,74.6452 0.654,149.4178 0,224.0078 0,60.847 49.3269,110.1719 110.1739,110.1719 59.6065,0 108.1559,-47.3356 110.1113,-106.4668 v -3.7734 c -32.0661,0.1124 -72.9215,0.2144 -104.959,0.1035 v 43.0937 l 46.4414,0.2246 c -12.3011,14.7983 -30.8465,24.2207 -51.5937,24.2207 -37.0372,0 -67.0625,-30.0253 -67.0625,-67.0625 0,-37.0371 30.0253,-67.0605 67.0625,-67.0605 20.2694,0 38.4337,8.9957 50.7304,23.209 16.8416,-0.01 33.6882,-0.038 50.5352,-0.074 -16.8521,-39.2558 -55.8383,-66.7597 -101.2656,-66.7597 -25.0261,0 -48.1017,8.3464 -66.5996,22.4043 -0.1167,-44.4578 -0.4629,-87.3574 -0.4629,-87.3574 0,-30.3837 -21.7577,-47.0151 -43.1114,-48.8809 z"
       id="path4743"
       inkscape:connector-curvature="0" />
    <path
       sodipodi:nodetypes="ccscccccsssccsccc"
       inkscape:connector-curvature="0"
       id="path4714"
       d="m 133.92435,77.37357 c -0.4707,74.6452 0.654,149.022 0,223.612 0,60.847 49.3269,110.1719 110.1739,110.1719 59.6065,0 108.1559,-47.3356 110.1113,-106.4668 v -3.7734 c -32.0661,0.1124 -72.9215,0.2144 -104.959,0.1035 v 43.0937 l 46.4414,0.2246 c -12.3011,14.7983 -30.8465,24.2207 -51.5937,24.2207 -37.0372,0 -67.0625,-30.0253 -67.0625,-67.0625 0,-37.0371 30.0253,-67.0605 67.0625,-67.0605 20.2694,0 38.4337,8.9957 50.7304,23.209 16.8416,-0.01 33.6882,-0.038 50.5352,-0.074 -16.8521,-39.2558 -55.8383,-66.7597 -101.2656,-66.7597 -25.0261,0 -47.51306,8.3464 -66.01096,22.4043 -0.1167,-44.4578 0,-135.8428 0,-135.8428 z"
       style="clip-rule:evenodd;fill:#82d4a4;fill-opacity:1;fill-rule:evenodd;stroke-width:0.79615551" />
  </g>
</svg>
