<svg xmlns="http://www.w3.org/2000/svg" viewBox="0 0 381.156 483.88"><path d="M236.317 294.468v35.045h7.623a137.216 137.216 0 01137.216 137.214v17.152H0v-17.152A137.216 137.216 0 01137.216 329.51h7.623v-35.042a106.8 106.8 0 01-60.4-85.246 22.875 22.875 0 01-19.64-22.643v-26.683a22.876 22.876 0 0119.058-22.553v-11.751a106.724 106.724 0 01213.448 0v11.751a22.876 22.876 0 0119.058 22.553v26.681a22.874 22.874 0 01-19.64 22.643 106.8 106.8 0 01-60.406 85.248z" fill="#ffdbb4"/><path d="M236.317 309.712v-15.246a106.987 106.987 0 01-91.478 0v15.246a106.987 106.987 0 0091.478 0zM83.854 209.131q.289.049.582.09a107.926 107.926 0 01-.582-11.209zM297.302 209.131q-.289.049-.582.09a107.926 107.926 0 00.582-11.209z" fill="rgba(0,0,0,0.1)"/><path d="M248.89 329.697a51.621 51.621 0 00-12.573-12.994v27.82c0 11.1-7.581 20.918-19.206 26.906l.148.118-1.733 5.459a55.152 55.152 0 01-49.9 0l-1.733-5.459.148-.118c-11.625-5.989-19.206-15.808-19.206-26.906v-29.169a52.592 52.592 0 00-14.529 14.428A137.222 137.222 0 000 466.826v17.056h381.156v-17.056A137.219 137.219 0 00248.89 329.697z" fill="#fff"/><path d="M190.578 399.24l7.847-3.924v88.564h-7.847zM254.865 344.522a35.6 35.6 0 01.509 6.005c0 13.733-7.885 26.119-20.527 34.875l-10.767-8.482-1.465.107q-1.872 1.031-3.911 1.94l.157.108-2.017 5.5 9.234-.578 11.391 7.77c13.375-8.02 21.717-19.365 21.717-31.943a30.04 30.04 0 00-4.321-15.302zM124.385 344.522a30.041 30.041 0 00-4.32 15.3c0 12.915 8.795 24.529 22.8 32.579l12.324-8.406 9.233.578-2.016-5.5.156-.108q-2.026-.9-3.893-1.932l-1.593-.115-11.649 9.177c-13.238-8.789-21.551-21.47-21.551-35.57a35.607 35.607 0 01.509-6.003z" fill="#bdbdbd"/><path d="M154.591 234.466a36.214 36.214 0 0071.989-.168c.156-1.462-1.476-3.888-3.523-3.888h-64.711a4.064 4.064 0 00-3.755 4.056z" fill="#4d4236" fill-rule="evenodd"/><path d="M214.766 257.355a20.978 20.978 0 00-24.191-3.695 20.978 20.978 0 00-24.191 3.695 36.213 36.213 0 0048.382 0z" fill="#ff4f6d"/><path d="M221.07 230.41h-59.079a9.53 9.53 0 009.529 9.529h40.021a9.53 9.53 0 009.529-9.529z" fill="#fff"/><path d="M167.709 198.012c0 8.42 10.239 15.246 22.869 15.246s22.87-6.826 22.87-15.246" fill="rgba(0,0,0,0.16)" fill-rule="evenodd"/><path d="M142.149 174.17a11.36 11.36 0 10-11.36-11.36 11.359 11.359 0 0011.36 11.36zM239.008 174.17a11.36 11.36 0 10-11.36-11.36 11.36 11.36 0 0011.36 11.36z" fill="rgba(0,0,0,0.6)"/><path d="M113.642 139.235c7.462-10.5 27.915-16.386 45.535-12.059a3.812 3.812 0 101.818-7.4c-20.461-5.025-44.147 1.793-53.566 15.046a3.812 3.812 0 106.213 4.417zM267.514 139.235c-7.461-10.5-27.915-16.386-45.535-12.059a3.812 3.812 0 01-1.817-7.4c20.461-5.025 44.147 1.793 53.566 15.046a3.812 3.812 0 01-6.214 4.417z" fill="#2c1b18"/><path d="M226.473 278.218c-5 4.562-10.323 6.613-17.052 5.178-1.158-.247-5.88-9.024-17.6-9.024s-16.446 8.778-17.6 9.024c-6.73 1.435-12.055-.617-17.052-5.178-9.4-8.577-17.21-20.4-12.514-33.306 2.446-6.725 6.426-14.109 13.667-16.253 7.731-2.287 18.585 0 26.375-1.566a17.113 17.113 0 007.129-2.9 17.131 17.131 0 007.129 2.9c7.791 1.563 18.645-.721 26.376 1.566 7.24 2.143 11.219 9.528 13.668 16.253 4.685 12.903-3.126 24.729-12.526 33.306zm76.86-143.508c-6.781 16.7-4.162 37.5-5.417 55.033-1.02 14.253-4.016 35.615-16.671 44.818-6.472 4.708-18.251 12.616-26.707 10.416-5.82-1.519-6.441-18.215-14.092-24.465a44.586 44.586 0 00-30.436-9.722c-4.714.207-14.247.158-18.192 3.782-3.946-3.624-13.479-3.575-18.193-3.782a44.586 44.586 0 00-30.436 9.722c-7.65 6.25-8.27 22.946-14.09 24.465-8.456 2.206-20.236-5.7-26.709-10.411-12.655-9.2-15.651-30.565-16.671-44.818-1.254-17.534 1.364-38.329-5.417-55.033-3.3 0-1.123 32.072-1.123 32.072v40.479c.063 30.4 19.052 75.9 61.154 93.276 10.3 4.25 33.62 8.759 51.486 8.759s41.188-8.635 51.485-12.884c42.1-17.375 61.092-58.75 61.155-89.15v-40.485s2.174-32.072-1.125-32.072z" fill="#2c1b18" fill-rule="evenodd"/><path d="M255.963 16.974C217.49-5.323 179.389-1.669 150.627 5.585S104.85 33.45 90.251 63.937a129 129 0 00-12.07 49.232 63.792 63.792 0 002.372 19.476c.642 2.3 4.109 10.265 5.059 3.827.317-2.143-.842-5.1-.954-7.378a77.07 77.07 0 01.214-9 65.817 65.817 0 013.146-16.371c2.529-7.6 5.749-15.84 10.678-22.253 12.2-15.871 33.315-16.775 50.082-25.508-1.455 2.678-7.065 7.013-5.121 10.031 1.342 2.084 6.422 1.452 8.848 1.386 6.382-.175 12.792-1.286 19.1-2.186a136.27 136.27 0 0028.593-7.792c7.655-2.862 16.4-5.512 22.15-11.583a130.867 130.867 0 0033.164 24.78c10.706 5.488 27.973 8.23 34.518 19.358 7.746 13.177 4.183 29.362 6.549 43.642.9 5.431 2.944 5.309 4.063.452a85.941 85.941 0 002.193-25.305c-1.372-19.15-8.398-69.474-46.872-91.771z" fill="#2c1b18" fill-rule="evenodd"/><path d="M128.64 125.592c-40.575 0-54.99 9.713-56.307 11a5.565 5.565 0 00-5.631 5.5v5.5a5.565 5.565 0 005.631 5.5s11.261 0 11.261 5.5c0 .83.128 1.228.346 1.3a118.29 118.29 0 00-.086 4.775c0 24.462 15.846 39.069 42.389 39.069h5.259c28.055 0 47.645-16.068 47.645-39.069 0-2.862-.073-5.715-.323-8.5l3.016-1.474a15.122 15.122 0 013.6-1.205 26.428 26.428 0 0111.42.526 25.037 25.037 0 012.867.859l2.631 1.041c-.268 2.865-.345 5.8-.345 8.753 0 24.462 15.846 39.069 42.389 39.069h5.255c28.055 0 47.645-16.068 47.645-39.069 0-2.927-.076-5.844-.34-8.689 3.315-2.881 11.861-2.881 11.861-2.881a5.561 5.561 0 005.631-5.5v-5.5a5.561 5.561 0 00-5.631-5.5c-1.317-1.287-15.732-11-56.307-11h-5.66c-3.411 0-6.565.131-9.481.383-18.169 1.027-27.976 4.1-37.951 8.949a32.382 32.382 0 01-8.7 1.656 32.4 32.4 0 01-9.167-1.73l-.8-.393-.012-.006c-9.4-4.6-16.062-7.861-39.586-8.666q-3.245-.192-6.864-.194h-5.66zm-.219 11.435c-36.944 0-36.944 13.038-36.944 29.543 0 13.474 5.939 29.536 34.249 29.536h5.776c23.564 0 40.021-12.145 40.021-29.536 0-16.505 0-29.543-36.944-29.543zm118.158 0c-36.944 0-36.944 13.038-36.944 29.543 0 13.474 5.945 29.536 34.249 29.536h5.772c23.564 0 40.021-12.145 40.021-29.536 0-16.505 0-29.543-36.944-29.543z" fill="#252c2f" fill-rule="evenodd"/><path d="M285.207 46.926c-6.816-11.662-16.231-22.411-29.244-29.952-38.473-22.3-76.574-18.646-105.336-11.389-22.283 5.622-37.515 19.257-50.035 39.291a229.37 229.37 0 01184.614 2.05z" fill="#252c2f"/></svg>