<svg viewBox="0 0 512 513" fill="none" xmlns="http://www.w3.org/2000/svg" role="img">
<rect width="100%" height="100%" fill="#6FCF97"/>
<path d="M296.8 343.039V374.3H303.6C371.2 374.3 426 429.1 426 496.7V512H86V496.7C86 429.1 140.8 374.3 208.4 374.3H215.2V343.039C185.896 329.118 164.833 300.668 161.319 266.998C151.417 265.598 143.8 257.089 143.8 246.8V223C143.8 212.892 151.152 204.501 160.8 202.882V192.4C160.8 139.823 203.422 97.2 256 97.2C308.577 97.2 351.2 139.823 351.2 192.4V202.882C360.848 204.501 368.2 212.892 368.2 223V246.8C368.2 257.089 360.583 265.598 350.681 266.998C347.167 300.668 326.103 329.118 296.8 343.039Z" fill="#FFDBB4"/>
<path d="M296.8 356.639V343.039C284.434 348.913 270.601 352.2 256 352.2C241.399 352.2 227.566 348.913 215.2 343.039V356.639C227.566 362.513 241.399 365.8 256 365.8C270.601 365.8 284.434 362.513 296.8 356.639Z" fill="black" fill-opacity="0.1"/>
<path d="M160.8 266.918C160.972 266.947 161.145 266.974 161.319 266.998C160.976 263.712 160.8 260.377 160.8 257V266.918Z" fill="black" fill-opacity="0.1"/>
<path d="M351.2 266.918C351.028 266.947 350.855 266.974 350.681 266.998C351.024 263.712 351.2 260.377 351.2 257V266.918Z" fill="black" fill-opacity="0.1"/>
<path d="M308.015 374.466C305.169 370.151 301.364 366.238 296.8 362.875V387.691C296.8 397.591 290.038 406.35 279.668 411.692L279.8 411.797L278.254 416.667C271.663 420.057 264.075 421.988 256 421.988C247.925 421.988 240.337 420.057 233.746 416.667L232.2 411.797L232.332 411.692C221.962 406.35 215.2 397.591 215.2 387.691V361.672C209.85 365.31 205.432 369.67 202.236 374.54C137.5 377.751 86 431.255 86 496.788V512H426V496.788C426 430.666 373.57 376.79 308.015 374.466Z" fill="white"/>
<path d="M256 436.5L263 433V513H256V436.5Z" fill="#BDBDBD"/>
<path d="M313.346 387.69C313.646 389.445 313.8 391.233 313.8 393.047C313.8 405.297 306.766 416.346 295.489 424.156L285.885 416.59L284.578 416.685C283.465 417.298 282.3 417.876 281.089 418.416L281.229 418.512L279.43 423.418L287.667 422.902L297.828 429.833C309.759 422.679 317.2 412.559 317.2 401.339C317.2 396.539 315.838 391.941 313.346 387.69Z" fill="#BDBDBD"/>
<path d="M196.954 387.69C194.462 391.941 193.1 396.539 193.1 401.339C193.1 412.859 200.945 423.219 213.439 430.4L224.432 422.902L232.668 423.418L230.87 418.512L231.009 418.416C229.804 417.879 228.644 417.303 227.536 416.693L226.115 416.59L215.724 424.776C203.915 416.936 196.5 405.624 196.5 393.047C196.5 391.233 196.654 389.445 196.954 387.69Z" fill="#BDBDBD"/>
<path fill-rule="evenodd" clip-rule="evenodd" d="M223.9 289.518C225.699 305.654 239.384 318.2 256 318.2C272.667 318.2 286.386 305.576 288.116 289.368C288.255 288.064 286.799 285.9 284.973 285.9C259.653 285.9 240.255 285.9 227.248 285.9C225.411 285.9 223.721 287.903 223.9 289.518Z" fill="#4D4236"/>
<path d="M277.579 309.935C274.207 306.634 269.591 304.6 264.5 304.6C261.439 304.6 258.55 305.335 256 306.639C253.45 305.335 250.561 304.6 247.5 304.6C242.409 304.6 237.793 306.634 234.421 309.935C240.141 315.073 247.705 318.2 256 318.2C264.295 318.2 271.859 315.073 277.579 309.935Z" fill="#FF4F6D"/>
<path d="M283.2 285.9H230.5C230.5 290.594 234.306 294.4 239 294.4H274.7C279.394 294.4 283.2 290.594 283.2 285.9Z" fill="white"/>
<path fill-rule="evenodd" clip-rule="evenodd" d="M235.6 257C235.6 264.511 244.733 270.6 256 270.6C267.267 270.6 276.4 264.511 276.4 257" fill="black" fill-opacity="0.16"/>
<path d="M212.8 235.733C218.397 235.733 222.933 231.196 222.933 225.6C222.933 220.004 218.397 215.467 212.8 215.467C207.204 215.467 202.667 220.004 202.667 225.6C202.667 231.196 207.204 235.733 212.8 235.733Z" fill="black" fill-opacity="0.6"/>
<path d="M299.2 235.733C304.796 235.733 309.333 231.196 309.333 225.6C309.333 220.004 304.796 215.467 299.2 215.467C293.603 215.467 289.067 220.004 289.067 225.6C289.067 231.196 293.603 235.733 299.2 235.733Z" fill="black" fill-opacity="0.6"/>
<path d="M187.371 204.57C194.027 195.205 212.272 189.953 227.989 193.813C229.813 194.261 231.654 193.146 232.102 191.322C232.55 189.498 231.434 187.657 229.611 187.209C211.359 182.727 190.231 188.808 181.829 200.63C180.741 202.161 181.1 204.284 182.63 205.371C184.161 206.459 186.284 206.1 187.371 204.57Z" fill="#2C1B18"/>
<path d="M324.629 204.57C317.974 195.205 299.728 189.953 284.011 193.813C282.188 194.261 280.346 193.146 279.899 191.322C279.451 189.498 280.566 187.657 282.39 187.209C300.642 182.727 321.77 188.808 330.172 200.63C331.26 202.161 330.901 204.284 329.37 205.371C327.84 206.459 325.717 206.1 324.629 204.57Z" fill="#2C1B18"/>
<path fill-rule="evenodd" clip-rule="evenodd" d="M288.02 328.545C283.561 332.614 278.812 334.444 272.809 333.164C271.776 332.944 267.564 325.114 257.105 325.114C246.646 325.114 242.435 332.944 241.402 333.164C235.399 334.444 230.649 332.614 226.191 328.545C217.81 320.894 210.839 310.345 215.028 298.835C217.21 292.836 220.76 286.249 227.219 284.337C234.115 282.297 243.797 284.334 250.746 282.94C252.998 282.488 255.457 281.685 257.105 280.354C258.754 281.685 261.214 282.488 263.464 282.94C270.414 284.334 280.096 282.297 286.992 284.337C293.45 286.249 297 292.836 299.184 298.835C303.372 310.345 296.402 320.894 288.02 328.545ZM356.581 200.533C350.532 215.434 352.868 233.983 351.749 249.624C350.839 262.338 348.167 281.393 336.878 289.603C331.105 293.802 320.597 300.858 313.054 298.89C307.862 297.535 307.308 282.642 300.484 277.067C292.744 270.744 283.079 267.966 273.334 268.395C269.129 268.58 260.625 268.536 257.106 271.769C253.586 268.536 245.082 268.58 240.877 268.395C231.132 267.966 221.467 270.744 213.727 277.067C206.903 282.642 206.35 297.535 201.158 298.89C193.615 300.858 183.107 293.802 177.333 289.603C166.044 281.393 163.372 262.338 162.462 249.624C161.343 233.983 163.679 215.434 157.63 200.533C154.687 200.533 156.628 229.142 156.628 229.142V265.25C156.684 292.368 173.623 332.956 211.179 348.454C220.364 352.245 241.169 356.267 257.106 356.267C273.042 356.267 293.847 348.564 303.032 344.774C340.588 329.275 357.527 292.368 357.584 265.25V229.142C357.584 229.142 359.524 200.533 356.581 200.533Z" fill="#2C1B18"/>
<path fill-rule="evenodd" clip-rule="evenodd" d="M314.325 95.5104C280.006 75.6211 246.019 78.8774 220.363 85.351C194.706 91.8245 179.529 110.207 166.506 137.402C160.113 150.755 156.322 166.546 155.739 181.318C155.51 187.119 156.292 193.106 157.855 198.691C158.428 200.741 161.52 207.848 162.368 202.105C162.651 200.193 161.617 197.556 161.517 195.524C161.386 192.858 161.526 190.157 161.708 187.495C162.048 182.519 162.935 177.636 164.514 172.892C166.77 166.112 169.642 158.762 174.039 153.042C184.92 138.885 203.757 138.078 218.713 130.288C217.415 132.677 212.411 136.544 214.145 139.236C215.342 141.095 219.874 140.531 222.038 140.472C227.731 140.316 233.449 139.325 239.073 138.522C247.935 137.255 256.239 134.688 264.579 131.571C271.407 129.018 279.205 126.654 284.337 121.239C292.618 129.82 303.277 137.889 313.92 143.343C323.47 148.238 338.873 150.684 344.711 160.611C351.621 172.365 348.442 186.803 350.553 199.541C351.355 204.386 353.179 204.277 354.177 199.944C355.872 192.584 356.673 184.937 356.133 177.371C354.912 160.29 348.644 115.4 314.325 95.5104Z" fill="#2C1B18"/>
<g filter="url(#filter0_d)">
<path fill-rule="evenodd" clip-rule="evenodd" d="M200.75 192.4C164.556 192.4 151.698 201.064 150.523 202.212C147.75 202.212 145.5 204.405 145.5 207.117V212.023C145.5 214.736 147.75 216.929 150.523 216.929C150.523 216.929 160.568 216.929 160.568 221.835C160.568 222.575 160.682 222.93 160.877 222.991C160.82 224.402 160.8 225.825 160.8 227.25C160.8 249.071 174.935 262.1 198.612 262.1H203.3C228.326 262.1 245.8 247.767 245.8 227.25C245.8 224.697 245.735 222.152 245.512 219.668L248.202 218.353C249.187 217.872 250.26 217.516 251.417 217.278C254.57 216.631 258.136 216.891 261.604 217.747C262.848 218.054 263.745 218.349 264.161 218.513L266.508 219.442C266.269 221.998 266.2 224.619 266.2 227.25C266.2 249.071 280.335 262.1 304.012 262.1H308.7C333.726 262.1 351.2 247.767 351.2 227.25C351.2 224.639 351.132 222.037 350.897 219.499C353.854 216.929 361.477 216.929 361.477 216.929C364.255 216.929 366.5 214.736 366.5 212.023V207.117C366.5 204.405 364.255 202.212 361.477 202.212C360.302 201.064 347.444 192.4 311.25 192.4C311.24 192.4 311.23 192.4 311.219 192.4C311.213 192.4 311.206 192.4 311.199 192.4H306.201C303.158 192.4 300.345 192.517 297.744 192.742C281.537 193.658 272.789 196.398 263.891 200.725C262.97 201.045 259.819 202.044 256.134 202.202C252.09 202.073 248.633 200.898 247.957 200.659L247.245 200.308L247.234 200.303C238.845 196.197 232.906 193.291 211.922 192.573C209.992 192.459 207.953 192.4 205.799 192.4H200.801C200.795 192.4 200.789 192.4 200.783 192.4C200.772 192.4 200.761 192.4 200.75 192.4ZM200.555 202.6C167.6 202.6 167.6 214.23 167.6 228.953C167.6 240.972 172.898 255.3 198.151 255.3H203.3C224.32 255.3 239 244.466 239 228.953C239 214.23 239 202.6 206.045 202.6H200.555ZM305.955 202.6C273 202.6 273 214.23 273 228.953C273 240.972 278.303 255.3 303.551 255.3H308.7C329.72 255.3 344.4 244.466 344.4 228.953C344.4 214.23 344.4 202.6 311.445 202.6H305.955Z" fill="#252C2F"/>
</g>
<path d="M340.411 122.228C334.331 111.825 325.933 102.237 314.325 95.5104C280.006 75.6211 246.019 78.8774 220.363 85.351C200.486 90.3661 186.899 102.529 175.731 120.399C200.367 109.844 227.501 104 256 104C286.105 104 314.688 110.521 340.411 122.228Z" fill="#252C2F"/>
<defs>
<filter id="filter0_d" x="141.5" y="190.4" width="229" height="77.7" filterUnits="userSpaceOnUse" color-interpolation-filters="sRGB">
<feFlood flood-opacity="0" result="BackgroundImageFix"/>
<feColorMatrix in="SourceAlpha" type="matrix" values="0 0 0 0 0 0 0 0 0 0 0 0 0 0 0 0 0 0 127 0"/>
<feOffset dy="2"/>
<feGaussianBlur stdDeviation="2"/>
<feColorMatrix type="matrix" values="0 0 0 0 0 0 0 0 0 0 0 0 0 0 0 0 0 0 0.2 0"/>
<feBlend mode="normal" in2="BackgroundImageFix" result="effect1_dropShadow"/>
<feBlend mode="normal" in="SourceGraphic" in2="effect1_dropShadow" result="shape"/>
</filter>
</defs>
</svg>
