<svg viewBox="0 0 1024 1024" fill="none" xmlns="http://www.w3.org/2000/svg"><rect fill="#0A0B0D" rx="10%" width="100%" height="100%"/><path d="M317.215 202h78.144s-.212 190.278 0 269.089c32.736-24.923 72.527-39.724 116.805-39.724 80.387 0 149.372 48.771 179.188 118.351-29.816.071-59.617.114-89.418.142-72.277-83.77-209.527-31.773-208.43 78.928 1.098 110.701 139.353 159.956 209.954 74.764l-82.179-.41v-76.394c56.696.198 128.983 0 185.721-.184v6.687C703.543 738.086 617.639 822 512.164 822c-107.662 0-194.949-87.449-194.949-195.31 1.157-132.234-.846-292.358 0-424.69z" fill="#6FCF97"/></svg>
