<svg xmlns="http://www.w3.org/2000/svg" width="816" height="11in" viewBox="0 0 816 1056" fill="none"><g opacity=".98"><text y="71.477" x="89.417" style="line-height:1.25;-inkscape-font-specification:'Montserrat, Medium';font-variant-ligatures:normal;font-variant-caps:normal;font-variant-numeric:normal;font-feature-settings:normal;text-align:start" font-weight="500" font-size="12" font-family="Montserrat" letter-spacing="0" word-spacing="0" fill="#000" stroke-width=".308"><tspan style="-inkscape-font-specification:'Montserrat, Medium';font-variant-ligatures:normal;font-variant-caps:normal;font-variant-numeric:normal;font-feature-settings:normal;text-align:start" y="71.477" x="89.417">Binyamin Green</tspan></text><text style="line-height:1.25;-inkscape-font-specification:'Montserrat, Normal';font-variant-ligatures:normal;font-variant-caps:normal;font-variant-numeric:normal;font-feature-settings:normal;text-align:start" x="106.285" y="89.207" font-weight="400" font-size="10.667" font-family="Montserrat" letter-spacing="0" word-spacing="0" fill="#000" stroke-width=".308"><tspan x="106.285" y="89.207" style="-inkscape-font-specification:'Montserrat, Normal';font-variant-ligatures:normal;font-variant-caps:normal;font-variant-numeric:normal;font-feature-settings:normal;text-align:start">(443)-803-9499</tspan></text><text y="104.937" x="110.511" style="line-height:1.25;-inkscape-font-specification:'Montserrat, Normal';font-variant-ligatures:normal;font-variant-caps:normal;font-variant-numeric:normal;font-feature-settings:normal;text-align:start" font-weight="400" font-size="10.667" font-family="Montserrat" letter-spacing="0" word-spacing="0" fill="#000" stroke-width=".308"><tspan style="-inkscape-font-specification:'Montserrat, Normal';font-variant-ligatures:normal;font-variant-caps:normal;font-variant-numeric:normal;font-feature-settings:normal;text-align:start" y="104.937" x="110.511">(410)-602-2622</tspan></text><text style="line-height:1.25;-inkscape-font-specification:'Montserrat, Medium';font-variant-ligatures:normal;font-variant-caps:normal;font-variant-numeric:normal;font-feature-settings:normal;text-align:start" x="89.417" y="135.477" font-weight="500" font-size="12" font-family="Montserrat" letter-spacing="0" word-spacing="0" fill="#000" stroke-width=".308"><tspan x="89.417" y="135.477" style="-inkscape-font-specification:'Montserrat, Medium';font-variant-ligatures:normal;font-variant-caps:normal;font-variant-numeric:normal;font-feature-settings:normal;text-align:start">Binyamin Green</tspan></text><text y="153.207" x="106.285" style="line-height:1.25;-inkscape-font-specification:'Montserrat, Normal';font-variant-ligatures:normal;font-variant-caps:normal;font-variant-numeric:normal;font-feature-settings:normal;text-align:start" font-weight="400" font-size="10.667" font-family="Montserrat" letter-spacing="0" word-spacing="0" fill="#000" stroke-width=".308"><tspan style="-inkscape-font-specification:'Montserrat, Normal';font-variant-ligatures:normal;font-variant-caps:normal;font-variant-numeric:normal;font-feature-settings:normal;text-align:start" y="153.207" x="106.285">(443)-803-9499</tspan></text><text style="line-height:1.25;-inkscape-font-specification:'Montserrat, Normal';font-variant-ligatures:normal;font-variant-caps:normal;font-variant-numeric:normal;font-feature-settings:normal;text-align:start" x="110.511" y="168.937" font-weight="400" font-size="10.667" font-family="Montserrat" letter-spacing="0" word-spacing="0" fill="#000" stroke-width=".308"><tspan x="110.511" y="168.937" style="-inkscape-font-specification:'Montserrat, Normal';font-variant-ligatures:normal;font-variant-caps:normal;font-variant-numeric:normal;font-feature-settings:normal;text-align:start">(410)-602-2622</tspan></text><text y="197.477" x="89.417" style="line-height:1.25;-inkscape-font-specification:'Montserrat, Medium';font-variant-ligatures:normal;font-variant-caps:normal;font-variant-numeric:normal;font-feature-settings:normal;text-align:start" font-weight="500" font-size="12" font-family="Montserrat" letter-spacing="0" word-spacing="0" fill="#000" stroke-width=".308"><tspan style="-inkscape-font-specification:'Montserrat, Medium';font-variant-ligatures:normal;font-variant-caps:normal;font-variant-numeric:normal;font-feature-settings:normal;text-align:start" y="197.477" x="89.417">Binyamin Green</tspan></text><text style="line-height:1.25;-inkscape-font-specification:'Montserrat, Normal';font-variant-ligatures:normal;font-variant-caps:normal;font-variant-numeric:normal;font-feature-settings:normal;text-align:start" x="106.285" y="215.207" font-weight="400" font-size="10.667" font-family="Montserrat" letter-spacing="0" word-spacing="0" fill="#000" stroke-width=".308"><tspan x="106.285" y="215.207" style="-inkscape-font-specification:'Montserrat, Normal';font-variant-ligatures:normal;font-variant-caps:normal;font-variant-numeric:normal;font-feature-settings:normal;text-align:start">(443)-803-9499</tspan></text><text y="230.937" x="110.511" style="line-height:1.25;-inkscape-font-specification:'Montserrat, Normal';font-variant-ligatures:normal;font-variant-caps:normal;font-variant-numeric:normal;font-feature-settings:normal;text-align:start" font-weight="400" font-size="10.667" font-family="Montserrat" letter-spacing="0" word-spacing="0" fill="#000" stroke-width=".308"><tspan style="-inkscape-font-specification:'Montserrat, Normal';font-variant-ligatures:normal;font-variant-caps:normal;font-variant-numeric:normal;font-feature-settings:normal;text-align:start" y="230.937" x="110.511">(410)-602-2622</tspan></text><text style="line-height:1.25;-inkscape-font-specification:'Montserrat, Medium';font-variant-ligatures:normal;font-variant-caps:normal;font-variant-numeric:normal;font-feature-settings:normal;text-align:start" x="89.417" y="263.477" font-weight="500" font-size="12" font-family="Montserrat" letter-spacing="0" word-spacing="0" fill="#000" stroke-width=".308"><tspan x="89.417" y="263.477" style="-inkscape-font-specification:'Montserrat, Medium';font-variant-ligatures:normal;font-variant-caps:normal;font-variant-numeric:normal;font-feature-settings:normal;text-align:start">Binyamin Green</tspan></text><text y="281.207" x="106.285" style="line-height:1.25;-inkscape-font-specification:'Montserrat, Normal';font-variant-ligatures:normal;font-variant-caps:normal;font-variant-numeric:normal;font-feature-settings:normal;text-align:start" font-weight="400" font-size="10.667" font-family="Montserrat" letter-spacing="0" word-spacing="0" fill="#000" stroke-width=".308"><tspan style="-inkscape-font-specification:'Montserrat, Normal';font-variant-ligatures:normal;font-variant-caps:normal;font-variant-numeric:normal;font-feature-settings:normal;text-align:start" y="281.207" x="106.285">(443)-803-9499</tspan></text><text style="line-height:1.25;-inkscape-font-specification:'Montserrat, Normal';font-variant-ligatures:normal;font-variant-caps:normal;font-variant-numeric:normal;font-feature-settings:normal;text-align:start" x="110.511" y="296.937" font-weight="400" font-size="10.667" font-family="Montserrat" letter-spacing="0" word-spacing="0" fill="#000" stroke-width=".308"><tspan x="110.511" y="296.937" style="-inkscape-font-specification:'Montserrat, Normal';font-variant-ligatures:normal;font-variant-caps:normal;font-variant-numeric:normal;font-feature-settings:normal;text-align:start">(410)-602-2622</tspan></text><text y="327.477" x="89.417" style="line-height:1.25;-inkscape-font-specification:'Montserrat, Medium';font-variant-ligatures:normal;font-variant-caps:normal;font-variant-numeric:normal;font-feature-settings:normal;text-align:start" font-weight="500" font-size="12" font-family="Montserrat" letter-spacing="0" word-spacing="0" fill="#000" stroke-width=".308"><tspan style="-inkscape-font-specification:'Montserrat, Medium';font-variant-ligatures:normal;font-variant-caps:normal;font-variant-numeric:normal;font-feature-settings:normal;text-align:start" y="327.477" x="89.417">Binyamin Green</tspan></text><text style="line-height:1.25;-inkscape-font-specification:'Montserrat, Normal';font-variant-ligatures:normal;font-variant-caps:normal;font-variant-numeric:normal;font-feature-settings:normal;text-align:start" x="106.285" y="345.207" font-weight="400" font-size="10.667" font-family="Montserrat" letter-spacing="0" word-spacing="0" fill="#000" stroke-width=".308"><tspan x="106.285" y="345.207" style="-inkscape-font-specification:'Montserrat, Normal';font-variant-ligatures:normal;font-variant-caps:normal;font-variant-numeric:normal;font-feature-settings:normal;text-align:start">(443)-803-9499</tspan></text><text y="360.937" x="110.511" style="line-height:1.25;-inkscape-font-specification:'Montserrat, Normal';font-variant-ligatures:normal;font-variant-caps:normal;font-variant-numeric:normal;font-feature-settings:normal;text-align:start" font-weight="400" font-size="10.667" font-family="Montserrat" letter-spacing="0" word-spacing="0" fill="#000" stroke-width=".308"><tspan style="-inkscape-font-specification:'Montserrat, Normal';font-variant-ligatures:normal;font-variant-caps:normal;font-variant-numeric:normal;font-feature-settings:normal;text-align:start" y="360.937" x="110.511">(410)-602-2622</tspan></text><text style="line-height:1.25;-inkscape-font-specification:'Montserrat, Medium';font-variant-ligatures:normal;font-variant-caps:normal;font-variant-numeric:normal;font-feature-settings:normal;text-align:start" x="89.417" y="389.477" font-weight="500" font-size="12" font-family="Montserrat" letter-spacing="0" word-spacing="0" fill="#000" stroke-width=".308"><tspan x="89.417" y="389.477" style="-inkscape-font-specification:'Montserrat, Medium';font-variant-ligatures:normal;font-variant-caps:normal;font-variant-numeric:normal;font-feature-settings:normal;text-align:start">Binyamin Green</tspan></text><text y="407.207" x="106.285" style="line-height:1.25;-inkscape-font-specification:'Montserrat, Normal';font-variant-ligatures:normal;font-variant-caps:normal;font-variant-numeric:normal;font-feature-settings:normal;text-align:start" font-weight="400" font-size="10.667" font-family="Montserrat" letter-spacing="0" word-spacing="0" fill="#000" stroke-width=".308"><tspan style="-inkscape-font-specification:'Montserrat, Normal';font-variant-ligatures:normal;font-variant-caps:normal;font-variant-numeric:normal;font-feature-settings:normal;text-align:start" y="407.207" x="106.285">(443)-803-9499</tspan></text><text style="line-height:1.25;-inkscape-font-specification:'Montserrat, Normal';font-variant-ligatures:normal;font-variant-caps:normal;font-variant-numeric:normal;font-feature-settings:normal;text-align:start" x="110.511" y="422.937" font-weight="400" font-size="10.667" font-family="Montserrat" letter-spacing="0" word-spacing="0" fill="#000" stroke-width=".308"><tspan x="110.511" y="422.937" style="-inkscape-font-specification:'Montserrat, Normal';font-variant-ligatures:normal;font-variant-caps:normal;font-variant-numeric:normal;font-feature-settings:normal;text-align:start">(410)-602-2622</tspan></text><text y="451.477" x="89.417" style="line-height:1.25;-inkscape-font-specification:'Montserrat, Medium';font-variant-ligatures:normal;font-variant-caps:normal;font-variant-numeric:normal;font-feature-settings:normal;text-align:start" font-weight="500" font-size="12" font-family="Montserrat" letter-spacing="0" word-spacing="0" fill="#000" stroke-width=".308"><tspan style="-inkscape-font-specification:'Montserrat, Medium';font-variant-ligatures:normal;font-variant-caps:normal;font-variant-numeric:normal;font-feature-settings:normal;text-align:start" y="451.477" x="89.417">Binyamin Green</tspan></text><text style="line-height:1.25;-inkscape-font-specification:'Montserrat, Normal';font-variant-ligatures:normal;font-variant-caps:normal;font-variant-numeric:normal;font-feature-settings:normal;text-align:start" x="106.285" y="469.207" font-weight="400" font-size="10.667" font-family="Montserrat" letter-spacing="0" word-spacing="0" fill="#000" stroke-width=".308"><tspan x="106.285" y="469.207" style="-inkscape-font-specification:'Montserrat, Normal';font-variant-ligatures:normal;font-variant-caps:normal;font-variant-numeric:normal;font-feature-settings:normal;text-align:start">(443)-803-9499</tspan></text><text y="484.937" x="110.511" style="line-height:1.25;-inkscape-font-specification:'Montserrat, Normal';font-variant-ligatures:normal;font-variant-caps:normal;font-variant-numeric:normal;font-feature-settings:normal;text-align:start" font-weight="400" font-size="10.667" font-family="Montserrat" letter-spacing="0" word-spacing="0" fill="#000" stroke-width=".308"><tspan style="-inkscape-font-specification:'Montserrat, Normal';font-variant-ligatures:normal;font-variant-caps:normal;font-variant-numeric:normal;font-feature-settings:normal;text-align:start" y="484.937" x="110.511">(410)-602-2622</tspan></text><text style="line-height:1.25;-inkscape-font-specification:'Montserrat, Medium';font-variant-ligatures:normal;font-variant-caps:normal;font-variant-numeric:normal;font-feature-settings:normal;text-align:start" x="89.417" y="515.477" font-weight="500" font-size="12" font-family="Montserrat" letter-spacing="0" word-spacing="0" fill="#000" stroke-width=".308"><tspan x="89.417" y="515.477" style="-inkscape-font-specification:'Montserrat, Medium';font-variant-ligatures:normal;font-variant-caps:normal;font-variant-numeric:normal;font-feature-settings:normal;text-align:start">Binyamin Green</tspan></text><text y="533.207" x="106.285" style="line-height:1.25;-inkscape-font-specification:'Montserrat, Normal';font-variant-ligatures:normal;font-variant-caps:normal;font-variant-numeric:normal;font-feature-settings:normal;text-align:start" font-weight="400" font-size="10.667" font-family="Montserrat" letter-spacing="0" word-spacing="0" fill="#000" stroke-width=".308"><tspan style="-inkscape-font-specification:'Montserrat, Normal';font-variant-ligatures:normal;font-variant-caps:normal;font-variant-numeric:normal;font-feature-settings:normal;text-align:start" y="533.207" x="106.285">(443)-803-9499</tspan></text><text style="line-height:1.25;-inkscape-font-specification:'Montserrat, Normal';font-variant-ligatures:normal;font-variant-caps:normal;font-variant-numeric:normal;font-feature-settings:normal;text-align:start" x="110.511" y="548.937" font-weight="400" font-size="10.667" font-family="Montserrat" letter-spacing="0" word-spacing="0" fill="#000" stroke-width=".308"><tspan x="110.511" y="548.937" style="-inkscape-font-specification:'Montserrat, Normal';font-variant-ligatures:normal;font-variant-caps:normal;font-variant-numeric:normal;font-feature-settings:normal;text-align:start">(410)-602-2622</tspan></text><text y="577.477" x="89.417" style="line-height:1.25;-inkscape-font-specification:'Montserrat, Medium';font-variant-ligatures:normal;font-variant-caps:normal;font-variant-numeric:normal;font-feature-settings:normal;text-align:start" font-weight="500" font-size="12" font-family="Montserrat" letter-spacing="0" word-spacing="0" fill="#000" stroke-width=".308"><tspan style="-inkscape-font-specification:'Montserrat, Medium';font-variant-ligatures:normal;font-variant-caps:normal;font-variant-numeric:normal;font-feature-settings:normal;text-align:start" y="577.477" x="89.417">Binyamin Green</tspan></text><text style="line-height:1.25;-inkscape-font-specification:'Montserrat, Normal';font-variant-ligatures:normal;font-variant-caps:normal;font-variant-numeric:normal;font-feature-settings:normal;text-align:start" x="106.285" y="595.207" font-weight="400" font-size="10.667" font-family="Montserrat" letter-spacing="0" word-spacing="0" fill="#000" stroke-width=".308"><tspan x="106.285" y="595.207" style="-inkscape-font-specification:'Montserrat, Normal';font-variant-ligatures:normal;font-variant-caps:normal;font-variant-numeric:normal;font-feature-settings:normal;text-align:start">(443)-803-9499</tspan></text><text y="610.937" x="110.511" style="line-height:1.25;-inkscape-font-specification:'Montserrat, Normal';font-variant-ligatures:normal;font-variant-caps:normal;font-variant-numeric:normal;font-feature-settings:normal;text-align:start" font-weight="400" font-size="10.667" font-family="Montserrat" letter-spacing="0" word-spacing="0" fill="#000" stroke-width=".308"><tspan style="-inkscape-font-specification:'Montserrat, Normal';font-variant-ligatures:normal;font-variant-caps:normal;font-variant-numeric:normal;font-feature-settings:normal;text-align:start" y="610.937" x="110.511">(410)-602-2622</tspan></text><text style="line-height:1.25;-inkscape-font-specification:'Montserrat, Medium';font-variant-ligatures:normal;font-variant-caps:normal;font-variant-numeric:normal;font-feature-settings:normal;text-align:start" x="89.417" y="643.477" font-weight="500" font-size="12" font-family="Montserrat" letter-spacing="0" word-spacing="0" fill="#000" stroke-width=".308"><tspan x="89.417" y="643.477" style="-inkscape-font-specification:'Montserrat, Medium';font-variant-ligatures:normal;font-variant-caps:normal;font-variant-numeric:normal;font-feature-settings:normal;text-align:start">Binyamin Green</tspan></text><text y="661.207" x="106.285" style="line-height:1.25;-inkscape-font-specification:'Montserrat, Normal';font-variant-ligatures:normal;font-variant-caps:normal;font-variant-numeric:normal;font-feature-settings:normal;text-align:start" font-weight="400" font-size="10.667" font-family="Montserrat" letter-spacing="0" word-spacing="0" fill="#000" stroke-width=".308"><tspan style="-inkscape-font-specification:'Montserrat, Normal';font-variant-ligatures:normal;font-variant-caps:normal;font-variant-numeric:normal;font-feature-settings:normal;text-align:start" y="661.207" x="106.285">(443)-803-9499</tspan></text><text style="line-height:1.25;-inkscape-font-specification:'Montserrat, Normal';font-variant-ligatures:normal;font-variant-caps:normal;font-variant-numeric:normal;font-feature-settings:normal;text-align:start" x="110.511" y="676.937" font-weight="400" font-size="10.667" font-family="Montserrat" letter-spacing="0" word-spacing="0" fill="#000" stroke-width=".308"><tspan x="110.511" y="676.937" style="-inkscape-font-specification:'Montserrat, Normal';font-variant-ligatures:normal;font-variant-caps:normal;font-variant-numeric:normal;font-feature-settings:normal;text-align:start">(410)-602-2622</tspan></text><text y="707.477" x="89.417" style="line-height:1.25;-inkscape-font-specification:'Montserrat, Medium';font-variant-ligatures:normal;font-variant-caps:normal;font-variant-numeric:normal;font-feature-settings:normal;text-align:start" font-weight="500" font-size="12" font-family="Montserrat" letter-spacing="0" word-spacing="0" fill="#000" stroke-width=".308"><tspan style="-inkscape-font-specification:'Montserrat, Medium';font-variant-ligatures:normal;font-variant-caps:normal;font-variant-numeric:normal;font-feature-settings:normal;text-align:start" y="707.477" x="89.417">Binyamin Green</tspan></text><text style="line-height:1.25;-inkscape-font-specification:'Montserrat, Normal';font-variant-ligatures:normal;font-variant-caps:normal;font-variant-numeric:normal;font-feature-settings:normal;text-align:start" x="106.285" y="725.207" font-weight="400" font-size="10.667" font-family="Montserrat" letter-spacing="0" word-spacing="0" fill="#000" stroke-width=".308"><tspan x="106.285" y="725.207" style="-inkscape-font-specification:'Montserrat, Normal';font-variant-ligatures:normal;font-variant-caps:normal;font-variant-numeric:normal;font-feature-settings:normal;text-align:start">(443)-803-9499</tspan></text><text y="740.937" x="110.511" style="line-height:1.25;-inkscape-font-specification:'Montserrat, Normal';font-variant-ligatures:normal;font-variant-caps:normal;font-variant-numeric:normal;font-feature-settings:normal;text-align:start" font-weight="400" font-size="10.667" font-family="Montserrat" letter-spacing="0" word-spacing="0" fill="#000" stroke-width=".308"><tspan style="-inkscape-font-specification:'Montserrat, Normal';font-variant-ligatures:normal;font-variant-caps:normal;font-variant-numeric:normal;font-feature-settings:normal;text-align:start" y="740.937" x="110.511">(410)-602-2622</tspan></text><text style="line-height:1.25;-inkscape-font-specification:'Montserrat, Medium';font-variant-ligatures:normal;font-variant-caps:normal;font-variant-numeric:normal;font-feature-settings:normal;text-align:start" x="89.417" y="769.477" font-weight="500" font-size="12" font-family="Montserrat" letter-spacing="0" word-spacing="0" fill="#000" stroke-width=".308"><tspan x="89.417" y="769.477" style="-inkscape-font-specification:'Montserrat, Medium';font-variant-ligatures:normal;font-variant-caps:normal;font-variant-numeric:normal;font-feature-settings:normal;text-align:start">Binyamin Green</tspan></text><text y="787.207" x="106.285" style="line-height:1.25;-inkscape-font-specification:'Montserrat, Normal';font-variant-ligatures:normal;font-variant-caps:normal;font-variant-numeric:normal;font-feature-settings:normal;text-align:start" font-weight="400" font-size="10.667" font-family="Montserrat" letter-spacing="0" word-spacing="0" fill="#000" stroke-width=".308"><tspan style="-inkscape-font-specification:'Montserrat, Normal';font-variant-ligatures:normal;font-variant-caps:normal;font-variant-numeric:normal;font-feature-settings:normal;text-align:start" y="787.207" x="106.285">(443)-803-9499</tspan></text><text style="line-height:1.25;-inkscape-font-specification:'Montserrat, Normal';font-variant-ligatures:normal;font-variant-caps:normal;font-variant-numeric:normal;font-feature-settings:normal;text-align:start" x="110.511" y="802.937" font-weight="400" font-size="10.667" font-family="Montserrat" letter-spacing="0" word-spacing="0" fill="#000" stroke-width=".308"><tspan x="110.511" y="802.937" style="-inkscape-font-specification:'Montserrat, Normal';font-variant-ligatures:normal;font-variant-caps:normal;font-variant-numeric:normal;font-feature-settings:normal;text-align:start">(410)-602-2622</tspan></text><text y="833.477" x="89.417" style="line-height:1.25;-inkscape-font-specification:'Montserrat, Medium';font-variant-ligatures:normal;font-variant-caps:normal;font-variant-numeric:normal;font-feature-settings:normal;text-align:start" font-weight="500" font-size="12" font-family="Montserrat" letter-spacing="0" word-spacing="0" fill="#000" stroke-width=".308"><tspan style="-inkscape-font-specification:'Montserrat, Medium';font-variant-ligatures:normal;font-variant-caps:normal;font-variant-numeric:normal;font-feature-settings:normal;text-align:start" y="833.477" x="89.417">Binyamin Green</tspan></text><text style="line-height:1.25;-inkscape-font-specification:'Montserrat, Normal';font-variant-ligatures:normal;font-variant-caps:normal;font-variant-numeric:normal;font-feature-settings:normal;text-align:start" x="106.285" y="851.207" font-weight="400" font-size="10.667" font-family="Montserrat" letter-spacing="0" word-spacing="0" fill="#000" stroke-width=".308"><tspan x="106.285" y="851.207" style="-inkscape-font-specification:'Montserrat, Normal';font-variant-ligatures:normal;font-variant-caps:normal;font-variant-numeric:normal;font-feature-settings:normal;text-align:start">(443)-803-9499</tspan></text><text y="866.937" x="110.511" style="line-height:1.25;-inkscape-font-specification:'Montserrat, Normal';font-variant-ligatures:normal;font-variant-caps:normal;font-variant-numeric:normal;font-feature-settings:normal;text-align:start" font-weight="400" font-size="10.667" font-family="Montserrat" letter-spacing="0" word-spacing="0" fill="#000" stroke-width=".308"><tspan style="-inkscape-font-specification:'Montserrat, Normal';font-variant-ligatures:normal;font-variant-caps:normal;font-variant-numeric:normal;font-feature-settings:normal;text-align:start" y="866.937" x="110.511">(410)-602-2622</tspan></text><text style="line-height:1.25;-inkscape-font-specification:'Montserrat, Medium';font-variant-ligatures:normal;font-variant-caps:normal;font-variant-numeric:normal;font-feature-settings:normal;text-align:start" x="89.417" y="897.477" font-weight="500" font-size="12" font-family="Montserrat" letter-spacing="0" word-spacing="0" fill="#000" stroke-width=".308"><tspan x="89.417" y="897.477" style="-inkscape-font-specification:'Montserrat, Medium';font-variant-ligatures:normal;font-variant-caps:normal;font-variant-numeric:normal;font-feature-settings:normal;text-align:start">Binyamin Green</tspan></text><text y="915.207" x="106.285" style="line-height:1.25;-inkscape-font-specification:'Montserrat, Normal';font-variant-ligatures:normal;font-variant-caps:normal;font-variant-numeric:normal;font-feature-settings:normal;text-align:start" font-weight="400" font-size="10.667" font-family="Montserrat" letter-spacing="0" word-spacing="0" fill="#000" stroke-width=".308"><tspan style="-inkscape-font-specification:'Montserrat, Normal';font-variant-ligatures:normal;font-variant-caps:normal;font-variant-numeric:normal;font-feature-settings:normal;text-align:start" y="915.207" x="106.285">(443)-803-9499</tspan></text><text style="line-height:1.25;-inkscape-font-specification:'Montserrat, Normal';font-variant-ligatures:normal;font-variant-caps:normal;font-variant-numeric:normal;font-feature-settings:normal;text-align:start" x="110.511" y="930.937" font-weight="400" font-size="10.667" font-family="Montserrat" letter-spacing="0" word-spacing="0" fill="#000" stroke-width=".308"><tspan x="110.511" y="930.937" style="-inkscape-font-specification:'Montserrat, Normal';font-variant-ligatures:normal;font-variant-caps:normal;font-variant-numeric:normal;font-feature-settings:normal;text-align:start">(410)-602-2622</tspan></text><text y="959.477" x="89.417" style="line-height:1.25;-inkscape-font-specification:'Montserrat, Medium';font-variant-ligatures:normal;font-variant-caps:normal;font-variant-numeric:normal;font-feature-settings:normal;text-align:start" font-weight="500" font-size="12" font-family="Montserrat" letter-spacing="0" word-spacing="0" fill="#000" stroke-width=".308"><tspan style="-inkscape-font-specification:'Montserrat, Medium';font-variant-ligatures:normal;font-variant-caps:normal;font-variant-numeric:normal;font-feature-settings:normal;text-align:start" y="959.477" x="89.417">Binyamin Green</tspan></text><text style="line-height:1.25;-inkscape-font-specification:'Montserrat, Normal';font-variant-ligatures:normal;font-variant-caps:normal;font-variant-numeric:normal;font-feature-settings:normal;text-align:start" x="106.285" y="977.207" font-weight="400" font-size="10.667" font-family="Montserrat" letter-spacing="0" word-spacing="0" fill="#000" stroke-width=".308"><tspan x="106.285" y="977.207" style="-inkscape-font-specification:'Montserrat, Normal';font-variant-ligatures:normal;font-variant-caps:normal;font-variant-numeric:normal;font-feature-settings:normal;text-align:start">(443)-803-9499</tspan></text><text y="992.937" x="110.511" style="line-height:1.25;-inkscape-font-specification:'Montserrat, Normal';font-variant-ligatures:normal;font-variant-caps:normal;font-variant-numeric:normal;font-feature-settings:normal;text-align:start" font-weight="400" font-size="10.667" font-family="Montserrat" letter-spacing="0" word-spacing="0" fill="#000" stroke-width=".308"><tspan style="-inkscape-font-specification:'Montserrat, Normal';font-variant-ligatures:normal;font-variant-caps:normal;font-variant-numeric:normal;font-feature-settings:normal;text-align:start" y="992.937" x="110.511">(410)-602-2622</tspan></text><path fill="#000" paint-order="markers stroke fill" d="M7.393 20.508h75.813v1004.931H7.393z"/><path d="M42.988 61.6h5.538s-.015 13.46 0 19.035c2.32-1.763 5.14-2.81 8.278-2.81 5.697 0 10.586 3.45 12.699 8.372-2.113.005-4.225.008-6.337.01a8.41 8.41 0 1 0 .108 10.872l-5.824-.029v-5.404c4.018.014 9.141 0 13.162-.013v.473c-.245 7.416-6.333 13.352-13.808 13.352-7.63 0-13.816-6.186-13.816-13.816.082-9.354-.06-20.681 0-30.042zm0 64h5.538s-.015 13.46 0 19.035c2.32-1.763 5.14-2.81 8.278-2.81 5.697 0 10.586 3.45 12.699 8.372-2.113.005-4.225.008-6.337.01a8.41 8.41 0 1 0 .108 10.872l-5.824-.03v-5.403c4.018.014 9.141 0 13.162-.013v.473c-.245 7.415-6.333 13.351-13.808 13.351-7.63 0-13.816-6.185-13.816-13.816.082-9.354-.06-20.68 0-30.042zm0 62h5.538s-.015 13.46 0 19.035c2.32-1.763 5.14-2.81 8.278-2.81 5.697 0 10.586 3.45 12.699 8.372-2.113.005-4.225.008-6.337.01a8.41 8.41 0 1 0 .108 10.872l-5.824-.03v-5.403c4.018.014 9.141 0 13.162-.013v.473c-.245 7.415-6.333 13.351-13.808 13.351-7.63 0-13.816-6.185-13.816-13.816.082-9.354-.06-20.68 0-30.042zm0 66h5.538s-.015 13.46 0 19.035c2.32-1.763 5.14-2.81 8.278-2.81 5.697 0 10.586 3.45 12.699 8.372-2.113.005-4.225.008-6.337.01a8.41 8.41 0 1 0 .108 10.872l-5.824-.03v-5.403c4.018.014 9.141 0 13.162-.013v.473c-.245 7.415-6.333 13.351-13.808 13.351-7.63 0-13.816-6.185-13.816-13.816.082-9.353-.06-20.68 0-30.042zm0 64h5.538s-.015 13.46 0 19.035c2.32-1.763 5.14-2.81 8.278-2.81 5.697 0 10.586 3.45 12.699 8.372-2.113.005-4.225.008-6.337.01a8.41 8.41 0 1 0 .108 10.872l-5.824-.03v-5.403c4.018.014 9.141 0 13.162-.013v.473c-.245 7.415-6.333 13.351-13.808 13.351-7.63 0-13.816-6.185-13.816-13.816.082-9.353-.06-20.68 0-30.042zm0 62h5.538s-.015 13.46 0 19.035c2.32-1.763 5.14-2.81 8.278-2.81 5.697 0 10.586 3.45 12.699 8.372-2.113.005-4.225.008-6.337.01a8.41 8.41 0 1 0 .108 10.872l-5.824-.03v-5.403c4.018.014 9.141 0 13.162-.013v.473c-.245 7.415-6.333 13.351-13.808 13.351-7.63 0-13.816-6.185-13.816-13.816.082-9.353-.06-20.68 0-30.042zm0 62h5.538s-.015 13.46 0 19.035c2.32-1.763 5.14-2.81 8.278-2.81 5.697 0 10.586 3.45 12.699 8.372-2.113.005-4.225.008-6.337.01a8.41 8.41 0 1 0 .108 10.872l-5.824-.03v-5.403c4.018.014 9.141 0 13.162-.013v.473c-.245 7.415-6.333 13.351-13.808 13.351-7.63 0-13.816-6.185-13.816-13.816.082-9.353-.06-20.68 0-30.042zm0 64h5.538s-.015 13.46 0 19.035c2.32-1.763 5.14-2.81 8.278-2.81 5.697 0 10.586 3.45 12.699 8.372-2.113.005-4.225.008-6.337.01a8.41 8.41 0 1 0 .108 10.872l-5.824-.03v-5.403c4.018.014 9.141 0 13.162-.013v.473c-.245 7.415-6.333 13.351-13.808 13.351-7.63 0-13.816-6.185-13.816-13.816.082-9.354-.06-20.68 0-30.042zm0 62h5.538s-.015 13.46 0 19.035c2.32-1.763 5.14-2.81 8.278-2.81 5.697 0 10.586 3.45 12.699 8.372-2.113.005-4.225.008-6.337.01a8.41 8.41 0 1 0 .108 10.872l-5.824-.03v-5.403c4.018.014 9.141 0 13.162-.013v.473c-.245 7.415-6.333 13.351-13.808 13.351-7.63 0-13.816-6.185-13.816-13.816.082-9.354-.06-20.68 0-30.042zm0 66h5.538s-.015 13.46 0 19.035c2.32-1.763 5.14-2.81 8.278-2.81 5.697 0 10.586 3.45 12.699 8.372-2.113.005-4.225.008-6.337.01a8.41 8.41 0 1 0 .108 10.872l-5.824-.03v-5.403c4.018.014 9.141 0 13.162-.013v.473c-.245 7.415-6.333 13.351-13.808 13.351-7.63 0-13.816-6.185-13.816-13.816.082-9.354-.06-20.68 0-30.042zm0 64h5.538s-.015 13.46 0 19.035c2.32-1.763 5.14-2.81 8.278-2.81 5.697 0 10.586 3.45 12.699 8.372-2.113.005-4.225.008-6.337.01a8.41 8.41 0 1 0 .108 10.872l-5.824-.03v-5.403c4.018.014 9.141 0 13.162-.013v.473c-.245 7.415-6.333 13.351-13.808 13.351-7.63 0-13.816-6.185-13.816-13.816.082-9.354-.06-20.68 0-30.042zm0 62h5.538s-.015 13.46 0 19.035c2.32-1.763 5.14-2.81 8.278-2.81 5.697 0 10.586 3.45 12.699 8.372-2.113.005-4.225.008-6.337.01a8.41 8.41 0 1 0 .108 10.872l-5.824-.03v-5.403c4.018.014 9.141 0 13.162-.013v.473c-.245 7.415-6.333 13.351-13.808 13.351-7.63 0-13.816-6.185-13.816-13.816.082-9.354-.06-20.68 0-30.042zm0 64h5.538s-.015 13.46 0 19.035c2.32-1.763 5.14-2.81 8.278-2.81 5.697 0 10.586 3.45 12.699 8.372-2.113.005-4.225.008-6.337.01a8.41 8.41 0 1 0 .108 10.872l-5.824-.03v-5.403c4.018.014 9.141 0 13.162-.013v.473c-.245 7.415-6.333 13.351-13.808 13.351-7.63 0-13.816-6.185-13.816-13.816.082-9.354-.06-20.68 0-30.042zm0 64h5.538s-.015 13.46 0 19.035c2.32-1.763 5.14-2.81 8.278-2.81 5.697 0 10.586 3.45 12.699 8.372-2.113.005-4.225.008-6.337.01a8.41 8.41 0 1 0 .108 10.872l-5.824-.03v-5.403c4.018.014 9.141 0 13.162-.013v.473c-.245 7.415-6.333 13.351-13.808 13.351-7.63 0-13.816-6.185-13.816-13.816.082-9.354-.06-20.68 0-30.042zm0 62h5.538s-.015 13.46 0 19.035c2.32-1.763 5.14-2.81 8.278-2.81 5.697 0 10.586 3.45 12.699 8.372-2.113.005-4.225.008-6.337.01a8.41 8.41 0 1 0 .108 10.872l-5.824-.03v-5.403c4.018.014 9.141 0 13.162-.013v.473c-.245 7.415-6.333 13.351-13.808 13.351-7.63 0-13.816-6.185-13.816-13.816.082-9.354-.06-20.68 0-30.042z" fill="#fff"/></g></svg>