<svg xmlns="http://www.w3.org/2000/svg" viewBox="0 0 318.03 318.03">
    <defs>
        <style>
            .cls-1{fill:#707070;}
            .cls-2{fill:#efefef;}
        </style>
    </defs>
    <title>Logo</title>
    <g>
        <circle class="cls-1" cx="159.02" cy="159.02" r="159.02"/>
        <path class="cls-2" d="M205.32,65.25c-13.1.25-22.1,6-28,14-5.91,8.24-8.22,19-8.22,29a47.85,47.85,0,0,0,2.31,14.74A103.36,103.36,0,0,0,185,151.4c6.16,9.24,12.07,17.73,17.47,25.22,2.57,3.75,4.88,7.5,7.19,11,4.12,7.25,5.6,14.44,7.2,20.23,2,7.41-1.84,20.23-11.31,20.23l-103.92-.25V69.25H73.9V252.79H205.58c15.16,0,24.67-5.5,30.58-14s8-20,8-32.21c0-10-3.34-19.48-8.22-28.72s-11.31-18.73-17.74-28c-5.39-7.75-10.79-15-14.9-22s-6.94-13.48-6.94-19.73c0-10.73,2.31-18,9.51-18.23,4.37,0,7.2,3.5,9,8.49,1.8,5.25,2.06,12,2.06,18L244.13,114c0-10.24-1.54-22.48-6.94-32.47C231.79,71.74,222,65,205.32,65.25Z"/>
    </g>
</svg>