<svg xmlns="http://www.w3.org/2000/svg" width="500.000016" height="500.000016" viewBox="0 0 500.00002 500.00002" fill="none">
  <g transform="translate(-80.075447 -284.27408)">
    <rect ry="42.831726" y="284.27408" x="80.075447" height="500" width="500" fill="#333" paint-order="markers stroke fill"/>
    <path d="M229.27608 374.14879h40.43842s-.10957 98.28476 0 138.99336c16.94061-12.87341 37.53223-20.5186 60.44587-20.5186 41.59943 0 77.29884 25.19186 92.72795 61.13226-15.42911.0365-30.85091.0585-46.2727.073-37.40262-43.26982-108.42869-16.41172-107.86067 40.76898.56808 57.18069 72.11364 82.62257 108.64928 38.61824l-42.52678-.21175v-39.45995c29.33939.10221 66.74748 0 96.10877-.095v3.45384c-1.78898 54.15155-46.24349 97.49615-100.82585 97.49615-55.71418 0-100.88429-45.17009-100.88429-100.88426.59877-68.30281-.43812-151.01244 0-219.36634z" fill="#6fcf97"/>
  </g>
</svg>