<svg xmlns="http://www.w3.org/2000/svg" width="488.136" height="488.136" fill="none"><defs><filter id="a" x="-.045" width="1.091" y="-.03" height="1.06" color-interpolation-filters="sRGB"><feGaussianBlur stdDeviation="4.159"/></filter></defs><rect height="488.136" width="488.136" ry="75.081" fill="#333"/><path d="M137.924 80.978c-.47 74.645.654 149.418 0 224.008 0 60.847 49.327 110.171 110.174 110.171 59.607 0 108.156-47.335 110.112-106.466v-3.774c-32.067.113-72.922.215-104.96.104v43.093l46.442.225c-12.301 14.798-30.847 24.22-51.594 24.22-37.037 0-67.062-30.025-67.062-67.062s30.025-67.06 67.062-67.06c20.27 0 38.434 8.995 50.73 23.209 16.842-.01 33.689-.038 50.536-.074-16.852-39.256-55.838-66.76-101.266-66.76-25.026 0-48.101 8.346-66.6 22.404-.116-44.457-.462-87.357-.462-87.357 0-30.384-21.758-47.015-43.112-48.88z" clip-rule="evenodd" fill="#1a1a1a" fill-opacity=".463" fill-rule="evenodd" filter="url(#a)"/><path d="M133.924 77.374c-.47 74.645.654 149.022 0 223.612 0 60.847 49.327 110.171 110.174 110.171 59.607 0 108.156-47.335 110.112-106.466v-3.774c-32.067.113-72.922.215-104.96.104v43.093l46.442.225c-12.301 14.798-30.847 24.22-51.594 24.22-37.037 0-67.062-30.025-67.062-67.062s30.025-67.06 67.062-67.06c20.27 0 38.434 8.995 50.73 23.209 16.842-.01 33.689-.038 50.536-.074-16.852-39.256-55.838-66.76-101.266-66.76-25.026 0-47.513 8.346-66.01 22.404-.117-44.457 0-135.842 0-135.842z" clip-rule="evenodd" fill="#82d4a4" fill-rule="evenodd"/></svg>