<svg width="812" height="194" viewBox="0 0 812 194" fill="none" xmlns="http://www.w3.org/2000/svg">
<path d="M485.315 191.249C483.501 191.249 481.958 190.705 480.688 189.617C479.6 188.347 479.056 186.805 479.056 184.992V7.33553C479.056 5.34042 479.6 3.79874 480.688 2.7105C481.958 1.44087 483.501 0.806061 485.315 0.806061H498.922C501.825 0.806061 504.184 2.25706 505.998 5.15905L563.421 115.072L621.389 5.15905C621.752 4.0708 622.478 3.07324 623.566 2.16637C624.836 1.2595 626.378 0.806061 628.193 0.806061H641.528C643.524 0.806061 645.066 1.44087 646.154 2.7105C647.424 3.79874 648.059 5.34042 648.059 7.33553V184.992C648.059 186.805 647.424 188.347 646.154 189.617C644.884 190.705 643.342 191.249 641.528 191.249H628.193C626.378 191.249 624.836 190.705 623.566 189.617C622.478 188.347 621.933 186.805 621.933 184.992V51.1374L576.485 139.829C574.67 143.638 571.767 145.543 567.776 145.543H559.339C555.348 145.543 552.445 143.638 550.63 139.829L504.91 51.1374V184.992C504.91 186.805 504.275 188.347 503.005 189.617C501.916 190.705 500.465 191.249 498.65 191.249H485.315Z" fill="black"/>
<path fill-rule="evenodd" clip-rule="evenodd" d="M703.291 176.83C714.539 188.256 729.507 193.97 748.195 193.97C759.807 193.97 770.058 191.975 778.948 187.984C788.019 183.813 795.005 178.916 799.903 173.293C804.983 167.67 807.523 162.864 807.523 158.874C807.523 157.241 806.979 155.972 805.89 155.065C804.802 154.158 803.441 153.705 801.808 153.705H788.473C786.296 153.705 784.754 153.977 783.846 154.521C783.121 154.884 781.941 156.153 780.308 158.33C777.768 161.957 773.777 165.494 768.334 168.94C763.072 172.205 756.269 173.837 747.923 173.837C737.037 173.837 728.238 169.756 721.525 161.594C714.993 153.251 711.455 143.185 710.911 131.396V128.947H805.074C806.888 128.947 808.34 128.403 809.428 127.315C810.698 126.045 811.333 124.503 811.333 122.69V118.065C811.333 96.2996 805.8 79.0691 794.732 66.3729C783.665 53.4953 768.062 47.0565 747.923 47.0565C729.598 47.0565 714.812 52.8605 703.563 64.4684C692.495 76.0764 686.327 91.6746 685.057 111.263L684.785 120.241L685.057 129.491C686.145 149.442 692.223 165.222 703.291 176.83ZM785.479 109.359V110.175H710.911V109.359C710.911 96.8437 714.176 86.6868 720.708 78.8877C727.421 70.9072 736.493 66.917 747.923 66.917C759.353 66.917 768.425 70.9072 775.138 78.8877C782.032 86.6868 785.479 96.8437 785.479 109.359Z" fill="black"/>
<path d="M42.1651 107.368C42.1651 118.55 51.2579 127.65 62.4317 127.65C73.6056 127.65 82.6984 118.55 82.6984 107.368C82.6984 96.1858 73.6056 87.0857 62.4317 87.0857C51.2579 87.0857 42.1651 96.1858 42.1651 107.368Z" fill="#61B584"/>
<path fill-rule="evenodd" clip-rule="evenodd" d="M6.92648 193.97C5.11177 193.97 3.56943 193.418 2.29947 192.314C1.21093 191.026 0.666656 189.462 0.666656 187.623V7.42885C0.666656 5.40525 1.21093 3.84146 2.29947 2.7377C3.56943 1.45002 5.11177 0.806061 6.92648 0.806061H68.7057C96.1026 0.806061 115.879 7.06077 128.035 19.5704C140.192 31.8962 146.542 50.5688 147.086 75.5879C147.268 80.923 147.359 88.0975 147.359 97.112C147.359 106.126 147.268 113.393 147.086 118.912C146.542 136.388 143.639 150.646 138.378 161.684C133.297 172.538 125.223 180.632 114.156 185.967C103.088 191.302 88.3918 193.97 70.0666 193.97H6.92648ZM53.4242 136.664C42.5897 136.664 33.0147 142.163 27.3378 150.517V24.2616H67.3448C85.8514 24.2616 99.1872 28.4929 107.352 36.9552C115.516 45.2337 119.78 58.4793 120.143 76.6919C120.506 87.3619 120.688 94.1686 120.688 97.112C120.688 99.8715 120.506 106.77 120.143 117.808C119.78 130.686 117.875 140.988 114.428 148.714C111.806 154.769 107.839 159.52 102.529 162.967C100.024 148.061 87.0328 136.664 71.4393 136.664H53.4242Z" fill="#61B584"/>
<path fill-rule="evenodd" clip-rule="evenodd" d="M189.027 176.83C200.275 188.256 215.244 193.97 233.931 193.97C245.543 193.97 255.794 191.975 264.684 187.984C273.755 183.813 280.741 178.916 285.639 173.293C290.719 167.67 293.259 162.864 293.259 158.874C293.259 157.241 292.715 155.972 291.626 155.065C290.538 154.158 289.177 153.705 287.544 153.705H274.209C272.032 153.705 270.49 153.977 269.583 154.521C268.857 154.884 267.677 156.153 266.045 158.33C263.505 161.957 259.513 165.494 254.07 168.94C248.809 172.205 242.005 173.837 233.659 173.837C222.773 173.837 213.974 169.756 207.261 161.594C200.729 153.251 197.191 143.185 196.647 131.396V128.947H290.81C292.624 128.947 294.076 128.403 295.164 127.315C296.434 126.045 297.069 124.503 297.069 122.69V118.065C297.069 96.2996 291.536 79.0691 280.468 66.3729C269.401 53.4953 253.798 47.0565 233.659 47.0565C215.334 47.0565 200.548 52.8605 189.299 64.4684C178.232 76.0764 172.063 91.6746 170.793 111.263L170.521 120.241L170.793 129.491C171.881 149.442 177.959 165.222 189.027 176.83ZM271.215 109.359V110.175H196.647V109.359C196.647 96.8437 199.913 86.6868 206.444 78.8877C213.157 70.9072 222.229 66.917 233.659 66.917C245.089 66.917 254.161 70.9072 260.874 78.8877C267.768 86.6868 271.215 96.8437 271.215 109.359Z" fill="#61B584"/>
<path d="M364.016 184.448C366.011 188.982 369.368 191.249 374.085 191.249H385.788C390.505 191.249 393.861 188.982 395.857 184.448L446.477 58.211L447.021 55.4904C447.021 53.858 446.386 52.4977 445.116 51.4095C444.027 50.3212 442.757 49.7771 441.306 49.7771H427.971C425.249 49.7771 423.072 51.3188 421.439 54.4022L380.072 161.594L338.706 54.4022C337.255 51.3188 334.987 49.7771 331.902 49.7771H318.839C317.206 49.7771 315.846 50.3212 314.757 51.4095C313.668 52.4977 313.124 53.858 313.124 55.4904L313.668 58.211L364.016 184.448Z" fill="#61B584"/>
</svg>
